<?xml version="1.0" encoding="UTF-8"?>
<svg xmlns="http://www.w3.org/2000/svg" id="Layer_1" data-name="Layer 1" viewBox="0 0 24 24">
  <path d="M14,6.5c0,.829-.672,1.5-1.5,1.5H6.5c-.829,0-1.5-.671-1.5-1.5s.671-1.5,1.5-1.5h6c.828,0,1.5,.671,1.5,1.5Zm-6.5,14.5h-2c-1.378,0-2.5-1.122-2.5-2.5V5.5c0-1.378,1.122-2.5,2.5-2.5H13.5c1.379,0,2.5,1.122,2.5,2.5V14.5c0,.829,.672,1.5,1.5,1.5s1.5-.671,1.5-1.5V5.5c0-3.033-2.468-5.5-5.5-5.5H5.5C2.467,0,0,2.467,0,5.5v13c0,3.033,2.467,5.5,5.5,5.5h2c.829,0,1.5-.671,1.5-1.5s-.671-1.5-1.5-1.5Zm0-6h-1c-.829,0-1.5,.671-1.5,1.5s.671,1.5,1.5,1.5h1c.829,0,1.5-.671,1.5-1.5s-.671-1.5-1.5-1.5Zm16.043,.422c-.594-.576-1.543-.561-2.121,.034l-5.102,5.271c-.354,.369-.996,.36-1.338-.02l-2.391-2.535c-.567-.602-1.517-.63-2.121-.062-.603,.568-.63,1.518-.062,2.121l2.391,2.535c1.461,1.607,4.148,1.644,5.66,.065l5.119-5.288c.576-.595,.561-1.545-.035-2.121Zm-11.043-5.422H6.5c-.829,0-1.5,.671-1.5,1.5s.671,1.5,1.5,1.5h6c.828,0,1.5-.671,1.5-1.5s-.672-1.5-1.5-1.5Z"/>
</svg>
